# xmcd
#
# Track frame offsets:
#	150
#	16509
#	35298
#	47326
#	60646
#	81151
#	97173
#	115803
#	134571
#	149059
#	165379
#	178294
#	191820
#	209688
#	228816
#	247486
#	264377
#	281221
#	303964
#	324451
#
# Disc length: 4571 seconds
#
# Revision: 1
# Processed by: cddbd v1.5.2PL0 Copyright (c) Steve Scherf et al.
# Submitted via: audiograbber 1.83.01
#
DISCID=2911d914
DTITLE=101 Party Starters - CD1
DYEAR=2015
DGENRE=Party
TTITLE0=Queen - Another One Bites The Dust
TTITLE1=Lourney - Don't Stop Believin'
TTITLE2=Stevie Wonder - Signed, Sealed, Delivered (I'm Yours)
TTITLE3=Jackson 5 - ABC
TTITLE4=Blondie - Heart Of Glass
TTITLE5=ABBA - Mamma Mia
TTITLE6=Aretha Franklin - Freeway Of Love
TTITLE7=Marvin Gaye - Got To Give It Up
TTITLE8=Wild Cherry - Play That Funky Music
TTITLE9=Commodores - Brick House
TTITLE10=James Brown - Get Up I Feel Like Being A Sec Machine (Pt.1)
TTITLE11=Sly And The Family Stone - Dance To The Music
TTITLE12=Labelle Feat. Patti Labelle - Lady Marmalade
TTITLE13=KC and The Sunshine Band - Give It Up
TTITLE14=Billy Ocean - When The Going Gets Tough, The Tough Get Going
TTITLE15=Men At Work - Down Under
TTITLE16=Daryl Braithwaite - One Summer
TTITLE17=John Farnham - You're The Voice
TTITLE18=Daryl Hall and John Oates - Maneater
TTITLE19=Survivor - Eye Of The Tiger
EXTD=
EXTT0=
EXTT1=
EXTT2=
EXTT3=
EXTT4=
EXTT5=
EXTT6=
EXTT7=
EXTT8=
EXTT9=
EXTT10=
EXTT11=
EXTT12=
EXTT13=
EXTT14=
EXTT15=
EXTT16=
EXTT17=
EXTT18=
EXTT19=
PLAYORDER=
